Genre:Comedy | Drama | Romance 
Language:English
IMDb:http://www.imdb.com/title/tt1126618/
Source:DVD
Subtitles:Romana


Format : MPEG-4
Format profile : Base Media
Codec ID : isom
File size : 1.33 GiB
Duration : 1h 47mn
Overall bit rate : 1 768 Kbps


Video
Format profile : High@L4.1
Format settings, CABAC : Yes
Format settings, ReFrames : 3 frames
Codec ID : avc1
Codec ID/Info : Advanced Video Coding
Duration : 1h 47mn
Bit rate mode : Variable
Bit rate : 1 339 Kbps
Maximum bit rate : 7 122 Kbps
Width : 720 pixels
Height : 304 pixels
Display aspect ratio : 2.35:1
Frame rate mode : Constant
Frame rate : 23.976 fps
Color space : YUV
Chroma subsampling : 4:2:0
Bit depth : 8 bits
Scan type : Progressive
Bits/(Pixel*Frame) : 0.255
Stream size : 1 019 MiB (75%)
Writing library : x264


Audio
ID : 2
Format : AAC
Format/Info : Advanced Audio Codec
Format version : Version 4
Format profile : LC
Format settings, SBR : No
Codec ID : 40
Duration : 1h 47mn
Bit rate mode : Variable
Bit rate : 440 Kbps
Maximum bit rate : 555 Kbps
Channel(s) : 6 channels
Channel positions : Front: L C R, Side: L R, LFE
Sampling rate : 48.0 KHz
Stream size : 338 MiB (25%)


Plot:
An upstart television producer accepts the challenge of reviving a struggling morning show program with warring co-hosts.






================================== 
http://thepiratebay.org/user/hiest
==================================






Screenshots:
 
http://www.postimg.com/30000/29017.jpg
 
http://www.postimg.com/30000/29020.jpg
 
http://www.postimg.com/30000/29022.jpg
 
http://www.postimg.com/30000/29023.jpg
 
http://www.postimg.com/30000/29021.jpg